<svg xmlns="http://www.w3.org/2000/svg" viewBox="0 0 16 16" width="512px" height="512px" fill-rule="evenodd"
     clip-rule="evenodd">
    <g
            id="g172"
            transform="rotate(180,11.499875,4.500125)">
        <path fill="#ffffff"
              d="M10.03,7.03l4.5,-4.5c0.293,-0.292 0.293,-0.768 0,-1.06c-0.292,-0.293 -0.768,-0.293 -1.06,-0l-4.5,4.5c-0.293,0.292 -0.293,0.768 -0,1.06c0.292,0.293 0.768,0.293 1.06,0Z"/>
        <path fill="#ffffff"
              d="M8.25,3.672l-0,3.328c-0,0.414 0.336,0.75 0.75,0.75l3.328,-0c0.414,-0 0.75,-0.336 0.75,-0.75c0,-0.414 -0.336,-0.75 -0.75,-0.75l-2.578,-0c0,0 0,-2.578 0,-2.578c-0,-0.414 -0.336,-0.75 -0.75,-0.75c-0.414,-0 -0.75,0.336 -0.75,0.75Z"/>
    </g>
    <path fill="#ffffff"
          d="M7.75,9c0,-0.414 -0.336,-0.75 -0.75,-0.75l-5,0c-0.414,0 -0.75,0.336 -0.75,0.75l0,5c0,0.414 0.336,0.75 0.75,0.75l5,0c0.414,0 0.75,-0.336 0.75,-0.75l0,-5Zm-1.5,0.75l0,3.5c0,0 -3.5,0 -3.5,0c0,0 0,-3.5 0,-3.5l3.5,-0Z"/>
</svg>
